# xmcd CD database file
#
# Track frame offsets:
#	182
#	19682
#	28307
#	44957
#	61532
#	70232
#	74657
#	87632
#	98357
#	108707
#	130382
#	142907
#	162932
#	173432
#	182357
#	191207
#	205382
#	214982
#	221732
#	238832
#	244757
#	259682
#	268532
#	286832
#
# Disc length: 3954 seconds
#
# Revision: 0
# Processed by: cddbd v1.5.1PL0 Copyright (c) Steve Scherf et al.
# Submitted via: CDex 1.51
#
DISCID=720f7018
DTITLE=Sonoton Authentic Series - SAS 028 - Authentic  Asia 1 - Vietnam,Burma,Cambodia, Laos and Malaysia
DYEAR=1989
DGENRE=Contentum
TTITLE0=Au Yuon Chaon 1
TTITLE1=Au Yuon Chaon 2
TTITLE2=Yuon Tod Haie 1
TTITLE3=Yuon Tod Haie 2
TTITLE4=Yuon Tod Haie 3
TTITLE5=Yuon Tod Haie 4
TTITLE6=Praya Lumpong 1
TTITLE7=Praya Lumpong 2
TTITLE8=Praya Lumpong 3
TTITLE9=Khamae Keao 1
TTITLE10=Khamae Keao 2
TTITLE11=Khamae Ohm Tuk 1
TTITLE12=Khamae Ohm Tuk 2
TTITLE13=Lao Fueg Khong 1
TTITLE14=Lao Fueg Khong 2
TTITLE15=Lao Fueg Khong 3
TTITLE16=Lao Keb Bicha 1
TTITLE17=Lao Keb Bicha 2
TTITLE18=Terinai 1
TTITLE19=Terinai 2
TTITLE20=Keroncong 1
TTITLE21=Keroncong 2
TTITLE22=Gambus Tune
TTITLE23=Rebana Mood
EXTD=YEAR: 1989
EXTT0=
EXTT1=
EXTT2=
EXTT3=
EXTT4=
EXTT5=
EXTT6=
EXTT7=
EXTT8=
EXTT9=
EXTT10=
EXTT11=
EXTT12=
EXTT13=
EXTT14=
EXTT15=
EXTT16=
EXTT17=
EXTT18=
EXTT19=
EXTT20=
EXTT21=
EXTT22=
EXTT23=
PLAYORDER=
